<svg width="1600" height="600" viewBox="0 0 1600 600" fill="none" xmlns="http://www.w3.org/2000/svg">
  <rect width="1600" height="600" rx="64" fill="#0F151B"/>
  <rect x="84" y="84" width="188" height="188" rx="46" fill="#8EC2DA"/>
  <rect x="100" y="100" width="156" height="156" rx="38" fill="url(#markBg)"/>
  <path d="M138 221L165 149L181 182L198 161L211 221" stroke="white" stroke-width="10" stroke-linecap="round" stroke-linejoin="round"/>
  <circle cx="165" cy="149" r="7.5" fill="white"/>
  <path d="M330.258 226V146.8H387.826V162.856H349.626V179.632H382.274V195.688H349.626V226H330.258Z" fill="#EEF3F7"/>
  <path d="M398.258 226V146.8H434.746C442.378 146.8 448.882 148.072 454.258 150.616C459.634 153.085 463.746 156.712 466.594 161.496C469.517 166.205 470.978 171.88 470.978 178.52C470.978 185.085 469.517 190.76 466.594 195.544C463.746 200.328 459.634 203.992 454.258 206.536C448.882 209.005 442.378 210.24 434.746 210.24H411.338V226H398.258ZM411.338 199.968H434.474C441.264 199.968 446.34 198.472 449.702 195.48C453.064 192.413 454.746 188.093 454.746 182.52C454.746 176.872 453.064 172.552 449.702 169.56C446.34 166.493 441.264 164.96 434.474 164.96H411.338V199.968Z" fill="#EEF3F7"/>
  <path d="M486.531 226V146.8H522.219C529.851 146.8 536.281 148.035 541.507 150.504C546.733 152.899 550.658 156.339 553.283 160.824C555.901 165.235 557.211 170.461 557.211 176.504C557.211 182.547 555.901 187.811 553.283 192.296C550.658 196.781 546.733 200.259 541.507 202.728C536.281 205.123 529.851 206.32 522.219 206.32H499.611V226H486.531ZM499.611 196.048H521.467C527.957 196.048 532.805 194.675 536.011 191.928C539.217 189.181 540.819 185.373 540.819 180.504C540.819 175.56 539.217 171.715 536.011 168.968C532.805 166.147 527.957 164.736 521.467 164.736H499.611V196.048ZM542.523 226L522.547 190.528H536.747L558.355 226H542.523Z" fill="#EEF3F7"/>
  <path d="M606.605 227.68C599.122 227.68 592.557 226.295 586.909 223.528C581.333 220.76 576.973 216.76 573.829 211.528C570.757 206.221 569.221 199.88 569.221 192.504V180.296C569.221 172.92 570.757 166.616 573.829 161.384C576.973 156.077 581.333 152.04 586.909 149.272C592.557 146.504 599.122 145.12 606.605 145.12C614.085 145.12 620.613 146.504 626.189 149.272C631.765 152.04 636.088 156.077 639.157 161.384C642.301 166.616 643.873 172.92 643.873 180.296V192.504C643.873 199.88 642.301 206.221 639.157 211.528C636.088 216.76 631.765 220.76 626.189 223.528C620.613 226.295 614.085 227.68 606.605 227.68ZM606.605 210.68C613.917 210.68 619.749 208.653 624.101 204.6C628.528 200.547 630.741 194.936 630.741 187.768V185.032C630.741 177.864 628.528 172.253 624.101 168.2C619.749 164.147 613.917 162.12 606.605 162.12C599.293 162.12 593.421 164.147 588.989 168.2C584.637 172.253 582.461 177.864 582.461 185.032V187.768C582.461 194.936 584.637 200.547 588.989 204.6C593.421 208.653 599.293 210.68 606.605 210.68Z" fill="#8EC2DA"/>
  <path d="M665.119 226V146.8H721.847V162.856H684.487V180.08H716.183V196.136H684.487V226H665.119Z" fill="#8EC2DA"/>
  <path d="M751.906 226L725.106 146.8H739.242L760.85 213.512H754.578L775.898 146.8H789.186L810.506 213.512H804.234L825.842 146.8H839.978L813.178 226H796.69L775.978 161.224H779.842L759.13 226H751.906Z" fill="#8EC2DA"/>
  <defs>
    <linearGradient id="markBg" x1="118" y1="116" x2="242" y2="242" gradientUnits="userSpaceOnUse">
      <stop stop-color="#8EC2DA"/>
      <stop offset="1" stop-color="#6A95AD"/>
    </linearGradient>
  </defs>
</svg>
